# xmcd CD database file
#
# Track frame offsets:
#	150
#	29390
#	44545
#	64407
#	86180
#	99960
#	111580
#	129910
#	149840
#	169750
#
# Disc length: 2670 seconds
#
# Revision: 0
# Processed by: cddbd v1.4PL0 Copyright (c) Steve Scherf et al.
# Submitted via: CDex 1.50Beta7
#
DISCID=950a6c0a
DTITLE=The Buzzard Blue Band - Addicted to the Blues
DYEAR=1999
DGENRE=Blues
TTITLE0=Addicted to the Blues
TTITLE1=Really Gonna Make It
TTITLE2=Rock Bottom
TTITLE3=The Hardest Thing (Without You)
TTITLE4=Should Be Movin' On
TTITLE5=The Promised Land
TTITLE6=I Need Your Lovin'
TTITLE7=You and Me
TTITLE8=Twice My Size
TTITLE9=Sittin' Round the House
EXTD=YEAR: 1999
EXTT0=
EXTT1=
EXTT2=
EXTT3=
EXTT4=
EXTT5=
EXTT6=
EXTT7=
EXTT8=
EXTT9=
PLAYORDER=
